<svg xmlns="http://www.w3.org/2000/svg" xml:space="preserve" width="869.58264" height="538" viewBox="0 0 869.58264 538"><path d="M18.967 66.647h8.146l12.344-29.405-.261 29.405h6.483v-40.81H38.32L25.274 56.685l.26-30.846h-6.567zm45.626 0v-8.403l-.084.243-4.47-15.726h4.554v-7.199h-6.567l-2.715-9.724h-6.83l12.87 40.808zM78.256 34.72 68.098 66.648h-3.505v-8.403l4.554-15.482h-4.554v-7.2h6.568l2.804-9.724h4.29zm0 24.728H75.45v7.08h2.805zm32.929-33.61h-6.657v40.809h6.657zm-32.93 33.61h7.007v-33.61h6.568v33.61h9.895v7.08h-23.47zm0-33.61v8.883l2.804-8.883zm51.41 41.532v-6.966c-5.87 0-8.147-5.522-8.147-14.16 0-8.761 2.1-14.283 8.147-14.283v-7.08c-10.078 0-15.151 6.118-15.151 21.364 0 15.244 5.16 21.125 15.15 21.125m18.565-.724h8.058l12.432-29.403-.35 29.404h6.57v-40.81h-7.441l-13.05 30.847.35-30.846h-6.57zm-18.564-41.765v7.08c6.127 0 8.233 5.522 8.233 14.284 0 8.638-2.281 14.16-8.233 14.16v6.964c9.986 0 15.15-5.88 15.15-21.124 0-15.246-4.994-21.364-15.15-21.364m62.353 41.766v-8.403l-.086.243-4.382-15.726h4.468v-7.199h-6.566l-2.714-9.724h-6.75l12.792 40.808zm53.247 0h8.143l12.433-29.405-.345 29.405h6.565v-40.81h-7.447L251.57 56.685l.263-30.846h-6.57zm-30.128-40.81c-4.378 0-6.216 4.802-6.216 11.165v29.645h6.39V38.443c0-4.441.529-5.88 3.507-5.88h10.944v-6.726zm-23.12 9.726v7.199h4.554l-4.553 15.483v8.402h3.59l12.96-40.81h-7.178l-2.717 9.726zm97.122 31.084v-8.403l-.09.243-4.466-15.726h4.556v-7.199h-6.568l-2.715-9.724h-6.833l12.879 40.808zm17.513 0h8.058l12.437-29.405-.264 29.405h6.48v-40.81h-7.352l-13.05 30.847.26-30.846h-6.57zm-17.513-31.085v7.2h4.464l-4.464 15.482v8.403h3.502l12.875-40.81h-7.008l-2.803 9.726zm47.47 10.683c0 15.244 5.165 21.125 15.146 21.125v-6.966c-5.867 0-8.142-5.522-8.142-14.16 0-8.761 2.1-14.283 8.142-14.283v-7.08c-10.07 0-15.146 6.118-15.146 21.364m55.694-15.725-1.49-4.682h1.49zm0 35.767v-6.84h-11.475c-2.884 0-4.727-.96-4.727-5.403l-.09-4.439h16.292v-6.844h-16.291V25.837h-7.268v23.768c0 12.6 1.316 16.807 9.723 16.807zm-40.548 1.082c9.983 0 15.15-5.88 15.15-21.125 0-15.246-5.08-21.364-15.15-21.364v7.08c6.042 0 8.234 5.522 8.234 14.284 0 8.638-2.281 14.16-8.234 14.16zm40.548-7.922h1.494v6.84h-1.494zm0-16.686h1.494v6.844h-1.494zm14.627 23.885v-8.402l-.09.242-4.467-15.725h4.557v-7.199h-6.66l-2.623-9.725h-5.344v4.682l11.38 36.127zm0-31.084v7.2h4.464l-4.464 15.482v8.402h3.502l12.96-40.809h-7.093l-2.8 9.725zm30.74 31.084v-7.32h-6.747v-9.483h6.747v-7.197h-6.747V33.04h6.747v-7.202h-13.14v40.81zm73.389-6.96c-4.82 0-6.747-3.718-7.181-9.96h19.086v-6.965h-19.086c.434-6.236 2.45-9.842 7.18-9.842h11.732v-7.082h-11.731c-8.062 0-14.278 5.885-14.278 20.407 0 14.404 5.343 20.402 14.278 20.402h11.73v-6.96zm15.496 6.96h8.058l12.437-29.404-.35 29.404h6.57V25.837h-7.45l-13.044 30.846.259-30.846h-6.48zm-42.036-6.96c-5.694 0-7.357-5.038-7.357-13.442 0-8.399 1.838-13.325 7.357-13.325h10.597v-7.082h-10.597c-8.055 0-14.36 5.885-14.36 20.407 0 14.404 5.429 20.402 14.36 20.402h10.597v-6.96zm-46.85-33.849v7.202h2.716c2.098 0 4.114.841 4.114 4.806 0 3.955-2.016 4.801-4.114 4.801h-2.715v7.197h2.536c2.102 0 4.204.844 4.204 4.686 0 3.957-2.102 4.797-4.204 4.797h-2.536v7.32h2.45c4.638 0 11.207-.838 11.207-10.678 0-4.802-1.837-8.523-4.552-9.724 2.804-1.08 4.82-3.483 4.82-9.362 0-9.24-4.646-11.045-10.338-11.045zm144.15 25.686a50.078 50.078 0 0 1-.267-5.279c0-1.803.093-3.483.267-5.039zm0 15.004v-7.08h-9.547v-33.61h-6.654v33.61h-9.807v7.08zm0-7.08h.26v7.08h-.26zm0-18.242v10.318c1.226 10.562 6.3 15.123 14.01 15.123h11.736v-6.96h-11.736c-4.82 0-6.748-3.718-7.18-9.96h19.005v-6.965h-19.005c.522-6.236 2.539-9.842 7.18-9.842h11.736v-7.082h-11.736c-7.003 0-12.7 4.565-14.01 15.368m42.56 25.441v-7.32h-6.744v-10.2h6.744V41.8h-6.744V25.837h-6.395v40.81zm0-24.846v7.325h1.05c2.805 0 5.693.357 5.693 5.162 0 4.68-2.888 5.04-5.692 5.04h-1.051v7.32h2.625c6.135 0 10.599-3.12 10.599-12.36 0-5.524-1.923-10.202-6.127-11.403l7.526-17.047h-7.177l-6.66 15.963z" style="fill:#575757;fill-opacity:1;fill-rule:nonzero;stroke:none" transform="matrix(1.33333 0 0 -1.33333 0 538)"/><path d="M22.748 179.537v-49.002h47.407v12.852H35.723v36.15zM85.874 179.537V93.313H99.1v57.84h8.233v13.654H99.6v14.73zM113.954 179.537v-43.112h75.104v13.121h-62.502v29.991zM144.646 127.053v-18.209h-32.188v-13.39h78.099v13.39h-32.189v18.21zM200.735 166.716v12.821h76.603v-12.052h-18.966l18.966-20.35h-16.966l-21.337 19.28-20.834-19.28h-17.466l19.03 19.494z" style="fill:#000;fill-opacity:1;fill-rule:evenodd;stroke:none" transform="matrix(1.33333 0 0 -1.33333 0 538)"/><path d="m309.768 336 .103 14.832h-43.644v18.111h30.68c-6.695 5.818-6.333 19.29-6.333 19.29 0 20.351 17.896 30.078 28.957 30.078 11.063 0 27.826-12.292 27.826-28.87 0-16.577-6.369-20.498-6.369-20.498h31.217v-18.22H328.24V336h-18.472zm8.945 36.979c7.04 0 12.746 6.127 12.746 13.683 0 7.552-5.706 13.68-12.746 13.68-7.035 0-12.742-6.128-12.742-13.68 0-7.556 5.707-13.683 12.742-13.683z" style="fill:#000;fill-opacity:1;fill-rule:evenodd;stroke:none;stroke-width:1.33333"/><path d="M408.576 292.184v8.923H386.32v17.043h7.56s-8.64 36.172 24.423 38.145c0 0 30.676-.581 23.441-38.377h7.451v-17.041h-22.144v-8.693h-18.475zm9.184 26.658c4.568 0 8.263 3.968 8.263 8.867 0 4.899-3.695 8.87-8.263 8.87s-8.27-3.971-8.27-8.87c0-4.899 3.702-8.867 8.27-8.867z" style="fill:#000;fill-opacity:1;fill-rule:nonzero;stroke:none;stroke-width:1.33333"/><path d="M353.295 179.578v-41.305h13.21v16.609h8.019v13.566h-8.018v11.13z" style="fill:#000;fill-opacity:1;fill-rule:nonzero;stroke:none" transform="matrix(1.33333 0 0 -1.33333 0 538)"/><path d="M398.652 361.283v49.854h90.24v-49.854h-15.677v8.115H414.14v-8.115h-15.489zm15.286 25.172h58.884v10.623h-58.885v-10.623z" style="fill:#000;fill-opacity:1;fill-rule:nonzero;stroke:none;stroke-width:1.33333"/><path d="M381.744 165.743v13.834h47.236v-49.485h-13.044v35.566zM446.96 93.66h13.044v85.918H446.96ZM500.87 179.578h15.072l31.515-28.272H529.63l-21.309 18.347-21.223-18.347h-17.666zM468.54 147.398v-10.781h32.73v-3.827h-31.188v-11.13h62.87v-2.868h-62.795V95.314h76.892v10.694h-63.683v2.87h63.683v24.087h-31.356v3.652h32.737v10.78z" style="fill:#000;fill-opacity:1;fill-rule:nonzero;stroke:none" transform="matrix(1.33333 0 0 -1.33333 0 538)"/><path d="M770.148 294.639c-19.762 0-24.199 18.55-24.199 28.056s6.164 18.203 6.164 18.203h-9.511v17.963h19.558v16.114h17.5V358.86h23.768v-18.084h-13.395s5.828-8.807 5.828-18.547c0-9.738-5.94-27.591-25.713-27.591zm.872 17.51c4.89 0 8.859 4.258 8.859 9.507 0 5.25-3.969 9.508-8.86 9.508-4.893 0-8.853-4.257-8.853-9.508 0-5.25 3.96-9.508 8.854-9.508z" style="fill:#000;fill-opacity:1;fill-rule:nonzero;stroke:none;stroke-width:1.33333"/><path d="M558.57 119.31V95.314h76.65v13.299h-63.596v10.697zM607.284 121.959v13.518h12.838v39.341h12.921v-52.86z" style="fill:#000;fill-opacity:1;fill-rule:nonzero;stroke:none" transform="matrix(1.33333 0 0 -1.33333 0 538)"/><path d="M331.511 219.452H133.573v159.495h197.938z" style="fill:#34a27f;fill-opacity:1;fill-rule:evenodd;stroke:none" transform="matrix(1.33333 0 0 -1.33333 0 538)"/><path d="M523.835 219.452H330.306v159.495h193.529z" style="fill:#1f5591;fill-opacity:1;fill-rule:evenodd;stroke:none" transform="matrix(1.33333 0 0 -1.33333 0 538)"/><path d="M524.396 219.485h-193.52v159.492h193.52z" style="fill:#1f5591;fill-opacity:1;fill-rule:evenodd;stroke:none" transform="matrix(1.33333 0 0 -1.33333 0 538)"/><path d="M160.845 324.15h-10.681v11.057h10.681zM177.23 307.746h-10.677v11.058h10.677zM188.102 296.686h-10.677v11.055h10.677zM199.163 285.629h-10.677v11.057h10.677zM210.224 274.565H199.54v11.058h10.684zM226.816 324.15h-10.872v11.057h10.872zM226.816 307.746h-10.872v11.058h10.872zM226.816 291.347h-10.872v11.061h10.872zM226.816 274.762h-10.872v11.058h10.872zM226.816 258.165h-10.872v11.058h10.872zM160.845 307.746h-10.681v11.058h10.681zM160.845 291.15h-10.681v11.061h10.681zM160.845 274.747h-10.681v11.061h10.681zM160.845 258.158h-10.681v11.051h10.681zM254.266 307.754h-10.87v11.062h10.87zM254.266 291.351h-10.87v11.061h10.87zM254.266 274.958h-10.87v11.053h10.87zM254.266 258.371h-10.87v11.051h10.87zM270.855 274.767h-10.867v11.058h10.867zM287.253 274.767h-10.866v11.058h10.866zM303.847 274.767H292.98v11.058h10.867zM270.844 324.315h-10.872v11.058h10.872zM287.242 324.315h-10.866v11.058h10.866zM303.835 324.315h-10.869v11.058h10.869zM320.19 307.74h-10.873v11.057h10.873zM320.19 291.339h-10.873v11.054h10.873zM320.19 274.936h-10.873v11.061h10.873zM320.19 258.348h-10.873v11.062h10.873ZM347.701 324.364h-10.866v11.054h10.866zM347.701 307.959h-10.866v11.06h10.866zM347.701 291.564h-10.866v11.059h10.866zM347.701 274.975h-10.866v11.058h10.866zM347.701 258.381h-10.866v11.058h10.866zM413.688 324.169h-10.867v11.061h10.867zM413.688 307.771h-10.867v11.054h10.867zM413.688 291.377h-10.867v11.05h10.867zM413.688 274.785h-10.867v11.052h10.867zM413.688 258.19h-10.867v11.058h10.867zM364.082 307.782h-10.677v11.057h10.677zM374.946 296.717h-10.675v11.059h10.675zM386.009 285.665H375.33v11.052h10.679zM397.077 274.601h-10.684v11.056h10.684zM441.242 307.848h-10.874v11.06h10.874zM441.242 291.442h-10.874v11.062h10.874zM441.242 275.045h-10.874v11.056h10.874zM507.224 307.843h-10.872v11.056h10.872zM507.224 291.44h-10.872v11.055h10.872zM507.224 275.039h-10.872v11.058h10.872zM457.515 258.371h-10.869v11.051h10.869zM473.914 258.371h-10.866v11.051h10.866zM490.501 258.371h-10.865v11.051h10.865zM457.707 324.157h-10.872v11.062h10.872zM474.11 324.157h-10.871v11.062h10.871zM490.698 324.157h-10.866v11.062h10.866z" style="fill:#fff;fill-opacity:1;fill-rule:evenodd;stroke:none" transform="matrix(1.33333 0 0 -1.33333 0 538)"/></svg>